<svg viewBox="0 0 170 170" fill="white" xmlns="http://www.w3.org/2000/svg">
  <path d="M150.37 130.25c-2.45 5.66-5.35 10.87-8.71 15.66-4.58 6.53-8.33 11.05-11.22 13.56-4.48 4.12-9.28 6.23-14.42 6.35-3.69 0-8.14-1.05-13.32-3.18-5.19-2.12-9.97-3.17-14.34-3.17-4.58 0-9.49 1.05-14.75 3.17-5.26 2.13-9.5 3.24-12.74 3.35-4.92.21-9.6-1.7-14.05-5.76-3.4-2.89-7.38-7.73-11.95-14.52C28.53 136.27 24 125.14 21.28 112.33c-2.73-12.82-4.09-25.77-4.09-38.85 0-14.2 3.15-26.17 9.45-35.9 5.56-8.52 12.82-14.61 21.75-18.25 8.71-3.64 17.5-5.35 26.35-5.11 4.71.12 10.02 1.34 15.93 3.65 5.91 2.3 10.09 3.53 12.53 3.64 2.11 0 6.6-1.35 13.48-4.05 6.88-2.71 13.06-3.95 18.52-3.71 10.15.58 18.79 3.47 25.88 8.65 4.61 3.41 8.35 7.42 11.23 12.01-10.23 6.13-15.42 14.85-15.54 26.2-.12 10.26 3.51 18.66 10.9 25.18 5.65 4.96 12.63 7.85 20.94 8.64-1.99 6.25-5.23 12.61-9.74 19.1zM112.03 26.33c-4.3 0-8.91-1.63-13.82-4.88-4.91-3.26-8.54-7.85-10.9-13.78-.36-1.06-.55-3.03-.55-5.91 0-2.35.12-4.12.35-5.29.35-1.52.94-3.53 1.76-6.05 4.7 1.18 9.06 3.42 13.06 6.7 4.01 3.29 7.07 7.54 9.18 12.71.36 1.17.65 2.53.88 4.05.23 1.53.35 3.3.35 5.29 0 1.53-.12 3.06-.35 4.59-.28 0-.91.53-1.88 1.59-1.07 1-1.89 1.31-2.47 1.31z"/>
</svg>
